<?xml version="1.0" encoding="UTF-8"?>
<svg id="Camada_1" xmlns="http://www.w3.org/2000/svg" version="1.1" xmlns:xlink="http://www.w3.org/1999/xlink" viewBox="0 0 1080 1080">
  <!-- Generator: Adobe Illustrator 29.2.1, SVG Export Plug-In . SVG Version: 2.1.0 Build 116)  -->
  <defs>
    <style>
      .st0 {
        clip-path: url(#clippath-6);
      }

      .st1 {
        stroke: #000;
      }

      .st1, .st2, .st3, .st4 {
        fill: none;
      }

      .st1, .st3, .st4 {
        stroke-miterlimit: 10;
      }

      .st5 {
        clip-path: url(#clippath-4);
      }

      .st6 {
        clip-path: url(#clippath-1);
      }

      .st7 {
        isolation: isolate;
      }

      .st8 {
        clip-path: url(#clippath-5);
      }

      .st9 {
        clip-path: url(#clippath-3);
      }

      .st10 {
        display: none;
      }

      .st3 {
        stroke: url(#Gradiente_sem_nome_121);
      }

      .st3, .st4 {
        stroke-width: 3px;
      }

      .st11 {
        clip-path: url(#clippath-2);
      }

      .st4 {
        stroke: url(#Gradiente_sem_nome_112);
      }

      .st12 {
        clip-path: url(#clippath);
      }
    </style>
    <clipPath id="clippath">
      <path class="st2" d="M828,663.2c12,50.9-25.2,91-71,106.5-48.9,17.2-103.2,7.5-149.5-16.3-23.2-11.7-45.2-27.7-64.8-44.2-23.9-19.6-43.2-40.8-65.3-59.4-25.4-21.5-59.1-38.2-92.5-49.2-31.6-10.7-63.2-17.6-93.3-31.2-42.7-19.1-84.8-50.2-105.6-92.4-35-69.1-2.9-149.3,72.7-170.6,55.5-17.6,115.8,14.7,147.9,61.1,29,40.3,33.8,92.9,42.1,139.5,4.9,23.8,10.5,46.7,19.4,67.3,9.1,20.8,27.4,35.2,47.7,44.4,16.8,7.9,40.3,13.6,62,12.2,34.8-2,70.2-12.7,103.6-21.7,32.4-8.6,56.5-15.3,85.1-8.2,29,7.9,54.5,31.8,61.5,61.9v.3c0,0,0,0,0,0Z"/>
    </clipPath>
    <clipPath id="clippath-1">
      <rect class="st2" x="161.9" y="291.6" width="678.4" height="496.8"/>
    </clipPath>
    <clipPath id="clippath-2">
      <rect class="st2" x="161.9" y="291.6" width="678.4" height="496.8"/>
    </clipPath>
    <clipPath id="clippath-3">
      <path class="st2" d="M905.4,464.9c-8.9,15.2-29.6,16.7-45.8,17.9-24.2,1-48.5,2.4-70.7,12.5-47.2,21.3-81.4,67.3-133.2,79.9-64.8,18.4-150.3-9.4-169.8-79.3-11.9-41.3,7.9-84.2,39.5-111.9,24.5-22,55.4-35.6,87.3-42.5,93.5-21.8,180.8-.7,256.4,58.3,17.5,14.2,48.2,40.2,36.5,64.8v.2q-.1,0-.1,0Z"/>
    </clipPath>
    <clipPath id="clippath-4">
      <rect class="st1" x="472.5" y="323.2" width="445.7" height="267.5"/>
    </clipPath>
    <clipPath id="clippath-5">
      <rect class="st1" x="472.5" y="323.2" width="445.7" height="267.5"/>
    </clipPath>
    <clipPath id="clippath-6">
      <rect class="st2" x="472.3" y="323.4" width="445.9" height="267.2"/>
    </clipPath>
    <linearGradient id="Gradiente_sem_nome_112" data-name="Gradiente sem nome 112" x1="170.4" y1="540" x2="831.8" y2="540" gradientUnits="userSpaceOnUse">
      <stop offset="0" stop-color="#ffd84c"/>
      <stop offset=".5" stop-color="#d05b56"/>
      <stop offset="1" stop-color="#762670"/>
    </linearGradient>
    <clipPath id="clippath-7">
      <path class="st4" d="M828,663.2c12.1,50.9-25.2,91-71,106.5-48.9,17.2-103.2,7.5-149.5-16.3-23.2-11.7-45.1-27.7-64.8-44.2-23.9-19.6-43.2-40.8-65.3-59.4-25.4-21.5-59.1-38.1-92.5-49.2-31.6-10.7-63.2-17.6-93.3-31.2-42.7-19.1-84.8-50.2-105.6-92.4-35-69.1-2.9-149.3,72.7-170.6,55.5-17.6,115.8,14.7,147.9,61.1,29,40.3,33.8,92.9,42.1,139.5,4.9,23.8,10.5,46.7,19.4,67.3,9.1,20.7,27.4,35.2,47.7,44.4,16.8,7.9,40.3,13.6,62,12.2,34.8-2,70.2-12.7,103.6-21.7,32.4-8.6,56.5-15.3,85.1-8.2,29,7.9,54.4,31.8,61.5,61.9v.3Z"/>
    </clipPath>
    <linearGradient id="Gradiente_sem_nome_121" data-name="Gradiente sem nome 121" x1="481" y1="457" x2="909.6" y2="457" gradientUnits="userSpaceOnUse">
      <stop offset="0" stop-color="#e324a0"/>
      <stop offset=".5" stop-color="#5400a4"/>
      <stop offset="1" stop-color="#9c01df"/>
    </linearGradient>
    <clipPath id="clippath-8">
      <path class="st3" d="M905.4,464.9c-8.9,15.2-29.6,16.7-45.7,17.9-24.2,1-48.5,2.4-70.7,12.5-47.2,21.3-81.4,67.3-133.3,79.9-64.8,18.4-150.3-9.4-169.8-79.3-11.9-41.3,7.9-84.2,39.5-111.9,24.5-22,55.4-35.6,87.3-42.5,93.5-21.8,180.8-.7,256.3,58.3,17.5,14.2,48.1,40.2,36.5,64.8v.2Z"/>
    </clipPath>
  </defs>
  <g class="st10">
    <g class="st12">
      <g class="st6">
        <g class="st11">
          <image class="st7" width="1414" height="1035" transform="translate(161.8 291.6) scale(.5)" xlink:href="logo_vazada-1.png"/>
        </g>
      </g>
    </g>
  </g>
  <g class="st10">
    <g class="st9">
      <g>
        <g class="st5">
          <g>
            <g class="st8">
              <g id="AI_x5F_Image.psd">
                <g class="st0">
                  <image id="AI_x5F_Image" width="928" height="556" transform="translate(472.3 323.4) scale(.5)" xlink:href="logo_vazada-2.png"/>
                </g>
              </g>
            </g>
            <rect class="st1" x="472.5" y="323.2" width="445.7" height="267.5"/>
          </g>
        </g>
        <rect class="st1" x="472.5" y="323.2" width="445.7" height="267.5"/>
      </g>
    </g>
  </g>
  <g>
    <path class="st4" d="M828,663.2c12.1,50.9-25.2,91-71,106.5-48.9,17.2-103.2,7.5-149.5-16.3-23.2-11.7-45.1-27.7-64.8-44.2-23.9-19.6-43.2-40.8-65.3-59.4-25.4-21.5-59.1-38.1-92.5-49.2-31.6-10.7-63.2-17.6-93.3-31.2-42.7-19.1-84.8-50.2-105.6-92.4-35-69.1-2.9-149.3,72.7-170.6,55.5-17.6,115.8,14.7,147.9,61.1,29,40.3,33.8,92.9,42.1,139.5,4.9,23.8,10.5,46.7,19.4,67.3,9.1,20.7,27.4,35.2,47.7,44.4,16.8,7.9,40.3,13.6,62,12.2,34.8-2,70.2-12.7,103.6-21.7,32.4-8.6,56.5-15.3,85.1-8.2,29,7.9,54.4,31.8,61.5,61.9v.3Z"/>
    <path class="st3" d="M905.4,464.9c-8.9,15.2-29.6,16.7-45.7,17.9-24.2,1-48.5,2.4-70.7,12.5-47.2,21.3-81.4,67.3-133.3,79.9-64.8,18.4-150.3-9.4-169.8-79.3-11.9-41.3,7.9-84.2,39.5-111.9,24.5-22,55.4-35.6,87.3-42.5,93.5-21.8,180.8-.7,256.3,58.3,17.5,14.2,48.1,40.2,36.5,64.8v.2Z"/>
  </g>
</svg>