<svg width="48" height="48" viewBox="0 0 48 48" fill="none" xmlns="http://www.w3.org/2000/svg">
<path d="M34 22.163C33.674 22.3463 33.4027 22.613 33.2139 22.9359C33.0252 23.2587 32.9258 23.626 32.926 24C32.926 24.789 33.359 25.476 34 25.837L33.283 28.243C32.8954 28.1763 32.497 28.2196 32.1327 28.3678C31.7685 28.516 31.453 28.7633 31.2222 29.0816C30.9913 29.3999 30.8542 29.7766 30.8264 30.1688C30.7986 30.5611 30.8813 30.9533 31.065 31.301L29.003 32.903C28.73 32.6792 28.4051 32.5277 28.0582 32.4624C27.7113 32.3971 27.3535 32.4202 27.0179 32.5295C26.6822 32.6387 26.3794 32.8307 26.1374 33.0877C25.8954 33.3447 25.7219 33.6584 25.633 34L22.343 33.992C22.2531 33.652 22.0794 33.34 21.8378 33.0845C21.5962 32.829 21.2944 32.6381 20.96 32.5292C20.6256 32.4204 20.2692 32.3972 19.9235 32.4616C19.5778 32.526 19.2538 32.676 18.981 32.898L16.921 31.283C17.0996 30.9367 17.1786 30.5477 17.1491 30.1592C17.1197 29.7708 16.9831 29.3981 16.7544 29.0826C16.5258 28.7672 16.214 28.5214 15.854 28.3727C15.4939 28.2239 15.0996 28.178 14.715 28.24L14 25.825C14.3199 25.6398 14.5855 25.3737 14.77 25.0533C14.9545 24.733 15.0514 24.3697 15.051 24C15.051 23.22 14.63 22.54 14 22.175L14.715 19.76C15.0997 19.8222 15.4941 19.7765 15.8543 19.6278C16.2146 19.4791 16.5265 19.2334 16.7552 18.9179C16.984 18.6024 17.1208 18.2296 17.1502 17.8411C17.1797 17.4525 17.1007 17.0633 16.922 16.717L18.98 15.102C19.2528 15.324 19.5768 15.474 19.9225 15.5384C20.2682 15.6028 20.6246 15.5796 20.959 15.4708C21.2934 15.3619 21.5952 15.171 21.8368 14.9155C22.0784 14.66 22.2521 14.348 22.342 14.008L25.634 14C25.7229 14.3416 25.8964 14.6553 26.1384 14.9123C26.3804 15.1693 26.6832 15.3613 27.0189 15.4705C27.3545 15.5798 27.7123 15.6029 28.0592 15.5376C28.4061 15.4723 28.731 15.3208 29.004 15.097L31.064 16.7C30.8803 17.0477 30.7976 17.4399 30.8254 17.8322C30.8532 18.2244 30.9903 18.6011 31.2212 18.9194C31.452 19.2377 31.7675 19.485 32.1317 19.6332C32.496 19.7814 32.8944 19.8247 33.282 19.758L34 22.162V22.163ZM28.823 17.68C28.823 17.617 28.825 17.555 28.828 17.492L28.748 17.43C27.9691 17.6422 27.1449 17.6199 26.3786 17.3659C25.6123 17.1119 24.9379 16.6374 24.44 16.002L23.536 16.004C23.0399 16.6367 22.3687 17.1097 21.606 17.3639C20.8432 17.6182 20.0225 17.6425 19.246 17.434L19.151 17.51C19.1887 18.4127 18.9277 19.3026 18.4085 20.042C17.8893 20.7814 17.1408 21.329 16.279 21.6C16.7818 22.2988 17.0519 23.1381 17.051 23.999C17.051 24.881 16.771 25.714 16.279 26.399C17.1408 26.67 17.8893 27.2176 18.4085 27.957C18.9277 28.6964 19.1887 29.5863 19.151 30.489L19.247 30.564C20.0234 30.3562 20.8437 30.3809 21.6062 30.6351C22.3686 30.8894 23.0397 31.3619 23.536 31.994L24.44 31.996C24.9376 31.3604 25.6118 30.8859 26.3779 30.6319C27.1441 30.3778 27.9682 30.3556 28.747 30.568L28.827 30.506C28.7858 29.6005 29.0452 28.7068 29.5649 27.9642C30.0845 27.2215 30.8352 26.6716 31.7 26.4C31.1968 25.701 30.9263 24.8613 30.927 24C30.927 23.118 31.208 22.284 31.7 21.6C30.866 21.3378 30.1374 20.8164 29.6201 20.1115C29.1029 19.4067 28.824 18.5553 28.824 17.681L28.823 17.68ZM24 28C22.9391 28 21.9217 27.5786 21.1716 26.8284C20.4214 26.0783 20 25.0609 20 24C20 22.9391 20.4214 21.9217 21.1716 21.1716C21.9217 20.4214 22.9391 20 24 20C25.0609 20 26.0783 20.4214 26.8284 21.1716C27.5786 21.9217 28 22.9391 28 24C28 25.0609 27.5786 26.0783 26.8284 26.8284C26.0783 27.5786 25.0609 28 24 28ZM24 26C24.5304 26 25.0391 25.7893 25.4142 25.4142C25.7893 25.0391 26 24.5304 26 24C26 23.4696 25.7893 22.9609 25.4142 22.5858C25.0391 22.2107 24.5304 22 24 22C23.4696 22 22.9609 22.2107 22.5858 22.5858C22.2107 22.9609 22 23.4696 22 24C22 24.5304 22.2107 25.0391 22.5858 25.4142C22.9609 25.7893 23.4696 26 24 26Z" fill="white"/>
</svg>
